<mxfile host="app.diagrams.net" modified="2023-08-10T00:29:59.037Z" agent="Mozilla/5.0 (X11; Linux x86_64) AppleWebKit/537.36 (KHTML, like Gecko) Chrome/114.0.0.0 Safari/537.36" etag="jSCPQNqPjSRCZbUVqPqv" version="21.6.7" type="google">
  <diagram id="S8X9zugWxA_ZC4lc-A2S" name="Page-1">
    <mxGraphModel grid="1" page="1" gridSize="10" guides="1" tooltips="1" connect="1" arrows="1" fold="1" pageScale="1" pageWidth="850" pageHeight="1100" math="0" shadow="0">
      <root>
        <mxCell id="0" />
        <mxCell id="1" parent="0" />
        <UserObject label="" lucidchartObjectId="GT3MTJgxS-gf" id="wT6P_MaPZ7QrS6XtFfTw-1">
          <mxCell style="html=1;whiteSpace=wrap;;fontSize=11;spacing=3;strokeOpacity=100;fillOpacity=0;fillColor=#000000;dashed=1;dashPattern=16 6;gradientColor=#ffffff;" vertex="1" zOrder="0" parent="1">
            <mxGeometry x="90" y="-1080" width="640" height="447" as="geometry" />
          </mxCell>
        </UserObject>
        <UserObject label="&lt;b&gt;&lt;font style=&quot;font-size: 16px&quot;&gt;Manager&lt;/font&gt;&lt;/b&gt;" lucidchartObjectId="u6LM.tnHOIfR" id="wT6P_MaPZ7QrS6XtFfTw-3">
          <mxCell style="html=1;whiteSpace=wrap;;fontSize=11;fontColor=#000000;spacing=3;strokeOpacity=100;" vertex="1" zOrder="2" parent="1">
            <mxGeometry x="770" y="-945" width="80" height="149" as="geometry" />
          </mxCell>
        </UserObject>
        <UserObject label="&lt;b&gt;&lt;font style=&quot;font-size: 16px&quot;&gt;SAL&lt;/font&gt;&lt;/b&gt;" lucidchartObjectId="O6LMSiXaUcIe" id="wT6P_MaPZ7QrS6XtFfTw-4">
          <mxCell style="html=1;whiteSpace=wrap;;fontSize=11;fontColor=#000000;spacing=3;strokeOpacity=100;" vertex="1" zOrder="3" parent="1">
            <mxGeometry y="-936" width="60" height="131" as="geometry" />
          </mxCell>
        </UserObject>
        <UserObject label="&lt;font style=&quot;font-size: 16px&quot;&gt;Producer&lt;/font&gt;" lucidchartObjectId="8U3MgBVKM31D" id="wT6P_MaPZ7QrS6XtFfTw-34">
          <mxCell style="html=1;whiteSpace=wrap;;fontSize=19;fontColor=#000000;fontStyle=1;spacing=3;strokeOpacity=0;fillOpacity=0;fillColor=#ffffff;" vertex="1" zOrder="27" parent="1">
            <mxGeometry x="634" y="-1080" width="96" height="40" as="geometry" />
          </mxCell>
        </UserObject>
        <UserObject label="" lucidchartObjectId="GT3MTJgxS-gf" id="DwIG91w8eqEYA4OjXnhD-1">
          <mxCell style="html=1;whiteSpace=wrap;;fontSize=11;spacing=3;strokeOpacity=100;fillOpacity=0;fillColor=#000000;dashed=1;dashPattern=16 6;gradientColor=#ffffff;" vertex="1" zOrder="0" parent="1">
            <mxGeometry x="100" y="110" width="580" height="590" as="geometry" />
          </mxCell>
        </UserObject>
        <mxCell id="DwIG91w8eqEYA4OjXnhD-2" style="edgeStyle=orthogonalEdgeStyle;rounded=0;orthogonalLoop=1;jettySize=auto;html=1;entryX=0.25;entryY=0;entryDx=0;entryDy=0;curved=1;" edge="1" parent="1" source="DwIG91w8eqEYA4OjXnhD-4" target="DwIG91w8eqEYA4OjXnhD-9">
          <mxGeometry relative="1" as="geometry" />
        </mxCell>
        <mxCell id="DwIG91w8eqEYA4OjXnhD-3" value="Send events when&lt;br&gt;one is triggered" style="edgeLabel;html=1;align=center;verticalAlign=middle;resizable=0;points=[];" connectable="0" vertex="1" parent="DwIG91w8eqEYA4OjXnhD-2">
          <mxGeometry x="-0.6978" y="-18" relative="1" as="geometry">
            <mxPoint as="offset" />
          </mxGeometry>
        </mxCell>
        <UserObject label="Events" lucidchartObjectId="G4LMOLdaqRaX" id="DwIG91w8eqEYA4OjXnhD-4">
          <mxCell style="html=1;whiteSpace=wrap;;fontSize=11;fontColor=#000000;spacing=3;strokeOpacity=100;" vertex="1" zOrder="1" parent="1">
            <mxGeometry x="294" y="124" width="96" height="59" as="geometry" />
          </mxCell>
        </UserObject>
        <UserObject label="&lt;b&gt;&lt;font style=&quot;font-size: 16px&quot;&gt;Manager&lt;/font&gt;&lt;/b&gt;" lucidchartObjectId="u6LM.tnHOIfR" id="DwIG91w8eqEYA4OjXnhD-5">
          <mxCell style="html=1;whiteSpace=wrap;;fontSize=11;fontColor=#000000;spacing=3;strokeOpacity=100;" vertex="1" zOrder="2" parent="1">
            <mxGeometry x="760" y="531" width="80" height="59" as="geometry" />
          </mxCell>
        </UserObject>
        <UserObject label="&lt;b&gt;&lt;font style=&quot;font-size: 16px&quot;&gt;SAL&lt;/font&gt;&lt;/b&gt;" lucidchartObjectId="O6LMSiXaUcIe" id="DwIG91w8eqEYA4OjXnhD-6">
          <mxCell style="html=1;whiteSpace=wrap;;fontSize=11;fontColor=#000000;spacing=3;strokeOpacity=100;" vertex="1" zOrder="3" parent="1">
            <mxGeometry x="20" y="472" width="60" height="59" as="geometry" />
          </mxCell>
        </UserObject>
        <UserObject label="Heartbeats" lucidchartObjectId=".g3MWFg-sE8c" id="DwIG91w8eqEYA4OjXnhD-7">
          <mxCell style="html=1;whiteSpace=wrap;;fontSize=11;fontColor=#000000;spacing=3;strokeOpacity=100;" vertex="1" zOrder="4" parent="1">
            <mxGeometry x="294" y="304" width="96" height="59" as="geometry" />
          </mxCell>
        </UserObject>
        <UserObject label="ScriptQueue&#xa;State" lucidchartObjectId="eh3Mebcq.o85" id="DwIG91w8eqEYA4OjXnhD-8">
          <mxCell style="html=1;whiteSpace=wrap;;fontSize=11;fontColor=#000000;spacing=3;strokeOpacity=100;" vertex="1" zOrder="5" parent="1">
            <mxGeometry x="294" y="520" width="96" height="59" as="geometry" />
          </mxCell>
        </UserObject>
        <UserObject label="main.py" lucidchartObjectId="6h3Mt0NR0N~k" id="DwIG91w8eqEYA4OjXnhD-9">
          <mxCell style="html=1;whiteSpace=wrap;;fontSize=11;fontColor=#000000;spacing=3;strokeOpacity=100;" vertex="1" zOrder="7" parent="1">
            <mxGeometry x="546" y="461" width="96" height="59" as="geometry" />
          </mxCell>
        </UserObject>
        <UserObject label="" lucidchartObjectId=".i3M8aowqN~P" id="DwIG91w8eqEYA4OjXnhD-10">
          <mxCell style="html=1;jettySize=18;fontSize=11;rounded=1;arcSize=0;edgeStyle=orthogonalEdgeStyle;curved=1;startArrow=none;;endArrow=block;endFill=1;;exitX=0.12154782116581755;exitY=-0.010087719298245614;exitPerimeter=1;entryX=1;entryY=0.5;entryDx=0;entryDy=0;" edge="1" parent="1" source="DwIG91w8eqEYA4OjXnhD-9" target="DwIG91w8eqEYA4OjXnhD-48">
            <mxGeometry width="100" height="100" relative="1" as="geometry">
              <Array as="points" />
            </mxGeometry>
          </mxCell>
        </UserObject>
        <mxCell id="DwIG91w8eqEYA4OjXnhD-11" value="Gets data&lt;br&gt; every 2s" style="text;html=1;resizable=0;labelBackgroundColor=#ffffff;align=center;verticalAlign=middle;fontColor=#000000;;fontSize=11;" vertex="1" parent="DwIG91w8eqEYA4OjXnhD-10">
          <mxGeometry x="-0.1883769086255641" relative="1" as="geometry">
            <mxPoint x="-98.4" y="-53" as="offset" />
          </mxGeometry>
        </mxCell>
        <UserObject label="" lucidchartObjectId="kj3MnXK1OQGl" id="DwIG91w8eqEYA4OjXnhD-12">
          <mxCell style="html=1;jettySize=18;fontSize=11;rounded=1;arcSize=0;edgeStyle=orthogonalEdgeStyle;curved=1;startArrow=none;;endArrow=block;endFill=1;;exitX=1.00625;exitY=0.5;exitPerimeter=1;entryX=0;entryY=0.25;entryDx=0;entryDy=0;" edge="1" parent="1" source="DwIG91w8eqEYA4OjXnhD-7" target="DwIG91w8eqEYA4OjXnhD-9">
            <mxGeometry width="100" height="100" relative="1" as="geometry">
              <Array as="points" />
            </mxGeometry>
          </mxCell>
        </UserObject>
        <mxCell id="DwIG91w8eqEYA4OjXnhD-13" value="Reports heartbeat &lt;br&gt;message  with callback" style="text;html=1;resizable=0;labelBackgroundColor=#ffffff;align=center;verticalAlign=middle;fontColor=#000000;;fontSize=11;" vertex="1" parent="DwIG91w8eqEYA4OjXnhD-12">
          <mxGeometry relative="1" as="geometry" />
        </mxCell>
        <UserObject label="" lucidchartObjectId="Pl3MuHLBRfa3" id="DwIG91w8eqEYA4OjXnhD-14">
          <mxCell style="html=1;jettySize=18;fontSize=11;rounded=1;arcSize=0;edgeStyle=orthogonalEdgeStyle;curved=1;startArrow=none;;endArrow=block;endFill=1;;exitX=1;exitY=0.25;entryX=0;entryY=0.75;entryDx=0;entryDy=0;exitDx=0;exitDy=0;" edge="1" parent="1" source="DwIG91w8eqEYA4OjXnhD-8" target="DwIG91w8eqEYA4OjXnhD-9">
            <mxGeometry width="100" height="100" relative="1" as="geometry">
              <Array as="points" />
            </mxGeometry>
          </mxCell>
        </UserObject>
        <mxCell id="DwIG91w8eqEYA4OjXnhD-15" value="Reports queue  state&lt;br&gt;and scripts  heartbeats &lt;br&gt;with callback" style="text;html=1;resizable=0;labelBackgroundColor=#ffffff;align=center;verticalAlign=middle;fontColor=#000000;;fontSize=11;" vertex="1" parent="DwIG91w8eqEYA4OjXnhD-14">
          <mxGeometry x="-0.3454405640322019" relative="1" as="geometry">
            <mxPoint x="14.67" y="-14.809999999999999" as="offset" />
          </mxGeometry>
        </mxCell>
        <UserObject label="" lucidchartObjectId="gm3MIP84h4Yo" id="DwIG91w8eqEYA4OjXnhD-16">
          <mxCell style="html=1;jettySize=18;fontSize=11;rounded=1;arcSize=0;edgeStyle=orthogonalEdgeStyle;curved=1;startArrow=none;;endArrow=block;endFill=1;;exitX=0.10509337691001663;exitY=1.0100877214912283;exitPerimeter=1;entryX=1;entryY=0.75;entryDx=0;entryDy=0;" edge="1" parent="1" source="DwIG91w8eqEYA4OjXnhD-9" target="DwIG91w8eqEYA4OjXnhD-8">
            <mxGeometry width="100" height="100" relative="1" as="geometry">
              <Array as="points" />
            </mxGeometry>
          </mxCell>
        </UserObject>
        <mxCell id="DwIG91w8eqEYA4OjXnhD-17" value="Forces update &lt;br&gt;every 2 seconds" style="text;html=1;resizable=0;labelBackgroundColor=#ffffff;align=center;verticalAlign=middle;fontColor=#000000;;fontSize=11;" vertex="1" parent="DwIG91w8eqEYA4OjXnhD-16">
          <mxGeometry relative="1" as="geometry">
            <mxPoint x="-25.55" as="offset" />
          </mxGeometry>
        </mxCell>
        <UserObject label="" lucidchartObjectId="Yt3MuDJROcO4" id="DwIG91w8eqEYA4OjXnhD-18">
          <mxCell style="html=1;jettySize=18;fontSize=11;rounded=1;arcSize=0;edgeStyle=orthogonalEdgeStyle;curved=1;startArrow=none;;endArrow=block;endFill=1;;exitX=-0.00625;exitY=0.5;exitPerimeter=1;entryX=0.6808378147760227;entryY=-0.010087719298245614;entryPerimeter=1;" edge="1" parent="1" source="DwIG91w8eqEYA4OjXnhD-4" target="DwIG91w8eqEYA4OjXnhD-6">
            <mxGeometry width="100" height="100" relative="1" as="geometry">
              <Array as="points" />
            </mxGeometry>
          </mxCell>
        </UserObject>
        <mxCell id="DwIG91w8eqEYA4OjXnhD-19" value="Gets all events &lt;br&gt;data since last call,&lt;br&gt; for each salobj remote " style="text;html=1;resizable=0;labelBackgroundColor=#ffffff;align=center;verticalAlign=middle;fontColor=#000000;;fontSize=11;" vertex="1" parent="DwIG91w8eqEYA4OjXnhD-18">
          <mxGeometry x="-0.4182881028289568" relative="1" as="geometry">
            <mxPoint x="37" y="6.489999999999998" as="offset" />
          </mxGeometry>
        </mxCell>
        <mxCell id="DwIG91w8eqEYA4OjXnhD-20" style="edgeStyle=orthogonalEdgeStyle;rounded=0;orthogonalLoop=1;jettySize=auto;html=1;exitX=0;exitY=0;exitDx=0;exitDy=0;" edge="1" parent="1" source="DwIG91w8eqEYA4OjXnhD-19" target="DwIG91w8eqEYA4OjXnhD-1">
          <mxGeometry relative="1" as="geometry" />
        </mxCell>
        <UserObject label="config.json" lucidchartObjectId="Uz3MTHXA16VP" id="DwIG91w8eqEYA4OjXnhD-21">
          <mxCell style="html=1;whiteSpace=wrap;shape=document;fontSize=11;fontColor=#000000;spacing=3;strokeOpacity=100;" vertex="1" zOrder="18" parent="1">
            <mxGeometry x="577" y="40" width="77" height="59" as="geometry" />
          </mxCell>
        </UserObject>
        <UserObject label="" lucidchartObjectId="3z3MLnT6mmmS" id="DwIG91w8eqEYA4OjXnhD-22">
          <mxCell style="html=1;jettySize=18;fontSize=11;rounded=1;arcSize=0;edgeStyle=orthogonalEdgeStyle;curved=1;startArrow=none;;endArrow=block;endFill=1;;exitX=0.5;exitY=-0.010087719298245614;exitPerimeter=1;entryX=0.506;entryY=0.864;entryPerimeter=0;entryDx=0;entryDy=0;" edge="1" parent="1" source="DwIG91w8eqEYA4OjXnhD-9" target="DwIG91w8eqEYA4OjXnhD-21">
            <mxGeometry width="100" height="100" relative="1" as="geometry">
              <Array as="points" />
            </mxGeometry>
          </mxCell>
        </UserObject>
        <mxCell id="DwIG91w8eqEYA4OjXnhD-23" value="Gets CSCs remote&lt;br&gt; names of interest from" style="text;html=1;resizable=0;labelBackgroundColor=#ffffff;align=center;verticalAlign=middle;fontColor=#000000;;fontSize=11;" vertex="1" parent="DwIG91w8eqEYA4OjXnhD-22">
          <mxGeometry relative="1" as="geometry">
            <mxPoint x="5" y="-80" as="offset" />
          </mxGeometry>
        </mxCell>
        <UserObject label="" lucidchartObjectId="PB3MAJR0T39x" id="DwIG91w8eqEYA4OjXnhD-24">
          <mxCell style="html=1;jettySize=18;fontSize=11;rounded=1;arcSize=0;edgeStyle=orthogonalEdgeStyle;curved=1;startArrow=none;;endArrow=block;endFill=1;;exitX=0;exitY=0.5;entryX=1.01;entryY=0.017228864910404772;entryPerimeter=1;exitDx=0;exitDy=0;" edge="1" parent="1" source="DwIG91w8eqEYA4OjXnhD-48" target="DwIG91w8eqEYA4OjXnhD-6">
            <mxGeometry width="100" height="100" relative="1" as="geometry">
              <Array as="points">
                <mxPoint x="150" y="240" />
                <mxPoint x="150" y="474" />
              </Array>
            </mxGeometry>
          </mxCell>
        </UserObject>
        <mxCell id="DwIG91w8eqEYA4OjXnhD-25" value="Gets last values&lt;br&gt; for all telemetries &lt;br&gt;for each salobj remote " style="text;html=1;resizable=0;labelBackgroundColor=#ffffff;align=center;verticalAlign=middle;fontColor=#000000;;fontSize=11;" vertex="1" parent="DwIG91w8eqEYA4OjXnhD-24">
          <mxGeometry x="-0.35982625194662066" relative="1" as="geometry">
            <mxPoint x="18" y="86.24000000000001" as="offset" />
          </mxGeometry>
        </mxCell>
        <mxCell id="DwIG91w8eqEYA4OjXnhD-26" style="edgeStyle=orthogonalEdgeStyle;rounded=0;orthogonalLoop=1;jettySize=auto;html=1;exitX=0;exitY=0;exitDx=0;exitDy=0;" edge="1" parent="DwIG91w8eqEYA4OjXnhD-24" source="DwIG91w8eqEYA4OjXnhD-25" target="DwIG91w8eqEYA4OjXnhD-25">
          <mxGeometry relative="1" as="geometry" />
        </mxCell>
        <UserObject label="" lucidchartObjectId="FK3M6L9nDMdp" id="DwIG91w8eqEYA4OjXnhD-27">
          <mxCell style="html=1;jettySize=18;fontSize=11;rounded=1;arcSize=0;edgeStyle=orthogonalEdgeStyle;curved=1;startArrow=none;;endArrow=block;endFill=1;;entryX=1.01;entryY=0.5;entryPerimeter=1;exitX=0;exitY=0.25;exitDx=0;exitDy=0;" edge="1" parent="1" source="DwIG91w8eqEYA4OjXnhD-8" target="DwIG91w8eqEYA4OjXnhD-6">
            <mxGeometry width="100" height="100" relative="1" as="geometry">
              <Array as="points">
                <mxPoint x="240" y="535" />
                <mxPoint x="240" y="520" />
                <mxPoint x="162" y="520" />
                <mxPoint x="162" y="502" />
              </Array>
            </mxGeometry>
          </mxCell>
        </UserObject>
        <mxCell id="DwIG91w8eqEYA4OjXnhD-28" value="Subscribes to queue and &lt;br&gt;scripts data with salobj &lt;br&gt;remotes event callbacks" style="text;html=1;resizable=0;labelBackgroundColor=#ffffff;align=center;verticalAlign=middle;fontColor=#000000;;fontSize=11;" vertex="1" parent="DwIG91w8eqEYA4OjXnhD-27">
          <mxGeometry x="-0.29623892553844666" relative="1" as="geometry">
            <mxPoint x="-11.799999999999997" y="-10" as="offset" />
          </mxGeometry>
        </mxCell>
        <mxCell id="DwIG91w8eqEYA4OjXnhD-29" style="edgeStyle=orthogonalEdgeStyle;rounded=0;orthogonalLoop=1;jettySize=auto;html=1;exitX=0;exitY=0;exitDx=0;exitDy=0;" edge="1" parent="DwIG91w8eqEYA4OjXnhD-27" source="DwIG91w8eqEYA4OjXnhD-28" target="DwIG91w8eqEYA4OjXnhD-28">
          <mxGeometry relative="1" as="geometry" />
        </mxCell>
        <UserObject label="" lucidchartObjectId="dS3MUDCLJW9y" id="DwIG91w8eqEYA4OjXnhD-30">
          <mxCell style="html=1;jettySize=18;fontSize=11;rounded=1;arcSize=0;edgeStyle=orthogonalEdgeStyle;curved=1;startArrow=none;;endArrow=block;endFill=1;;exitX=0;exitY=0.75;entryX=1;entryY=0.75;entryDx=0;entryDy=0;exitDx=0;exitDy=0;" edge="1" parent="1" source="DwIG91w8eqEYA4OjXnhD-8" target="DwIG91w8eqEYA4OjXnhD-6">
            <mxGeometry width="100" height="100" relative="1" as="geometry">
              <Array as="points">
                <mxPoint x="250" y="564" />
                <mxPoint x="110" y="564" />
                <mxPoint x="110" y="516" />
              </Array>
            </mxGeometry>
          </mxCell>
        </UserObject>
        <mxCell id="DwIG91w8eqEYA4OjXnhD-31" value="&lt;span style=&quot;color: rgb(0 , 0 , 0) ; text-align: center&quot;&gt;&lt;span style=&quot;font-style: normal ; color: rgb(0 , 0 , 0) ; text-align: center&quot;&gt;Sends &lt;/span&gt;&lt;span style=&quot;color: rgb(0 , 0 , 0) ; text-align: center&quot;&gt;show&lt;/span&gt;&lt;span style=&quot;font-style: normal ; color: rgb(0 , 0 , 0) ; text-align: center&quot;&gt; commands&lt;br&gt; to trigger callback calls&lt;/span&gt;&lt;/span&gt;" style="text;html=1;resizable=0;labelBackgroundColor=#ffffff;align=center;verticalAlign=middle;fontStyle=2;fontColor=#000000;;fontSize=11;" vertex="1" parent="DwIG91w8eqEYA4OjXnhD-30">
          <mxGeometry x="-0.5157705965801851" relative="1" as="geometry">
            <mxPoint x="-28.4" as="offset" />
          </mxGeometry>
        </mxCell>
        <UserObject label="&lt;font style=&quot;font-size: 16px&quot;&gt;Producer&lt;/font&gt;" lucidchartObjectId="8U3MgBVKM31D" id="DwIG91w8eqEYA4OjXnhD-32">
          <mxCell style="html=1;whiteSpace=wrap;;fontSize=19;fontColor=#000000;fontStyle=1;spacing=3;strokeOpacity=0;fillOpacity=0;fillColor=#ffffff;" vertex="1" zOrder="27" parent="1">
            <mxGeometry x="500" y="110" width="96" height="59" as="geometry" />
          </mxCell>
        </UserObject>
        <UserObject label="" lucidchartObjectId="5Y3MFbPa70Lj" id="DwIG91w8eqEYA4OjXnhD-33">
          <mxCell style="html=1;jettySize=18;fontSize=11;rounded=1;arcSize=0;edgeStyle=orthogonalEdgeStyle;curved=1;startArrow=none;;endArrow=block;endFill=1;;exitX=-0.00625;exitY=0.5000000000000002;exitPerimeter=1;entryX=1;entryY=0.25;entryDx=0;entryDy=0;" edge="1" parent="1" source="DwIG91w8eqEYA4OjXnhD-7" target="DwIG91w8eqEYA4OjXnhD-6">
            <mxGeometry width="100" height="100" relative="1" as="geometry">
              <Array as="points">
                <mxPoint x="230" y="334" />
                <mxPoint x="230" y="487" />
              </Array>
            </mxGeometry>
          </mxCell>
        </UserObject>
        <mxCell id="DwIG91w8eqEYA4OjXnhD-34" value="Waits for heartbeat events&lt;br&gt; for each salobj Remote &lt;br&gt;constantly" style="text;html=1;resizable=0;labelBackgroundColor=#ffffff;align=center;verticalAlign=middle;fontColor=#000000;;fontSize=11;" vertex="1" parent="DwIG91w8eqEYA4OjXnhD-33">
          <mxGeometry x="-0.6034085181256819" relative="1" as="geometry">
            <mxPoint y="86.48" as="offset" />
          </mxGeometry>
        </mxCell>
        <UserObject label="" lucidchartObjectId="~43MDxwU0Y_z" id="DwIG91w8eqEYA4OjXnhD-35">
          <mxCell style="html=1;jettySize=18;fontSize=11;rounded=1;arcSize=0;edgeStyle=orthogonalEdgeStyle;curved=1;startArrow=none;;endArrow=block;endFill=1;;exitX=0.8957432879087323;exitY=1.0100877214912283;exitPerimeter=1;" edge="1" parent="1" source="DwIG91w8eqEYA4OjXnhD-9">
            <mxGeometry width="100" height="100" relative="1" as="geometry">
              <Array as="points">
                <mxPoint x="631" y="540" />
                <mxPoint x="730" y="540" />
                <mxPoint x="730" y="561" />
              </Array>
              <mxPoint x="760" y="561" as="targetPoint" />
            </mxGeometry>
          </mxCell>
        </UserObject>
        <mxCell id="DwIG91w8eqEYA4OjXnhD-36" value="&lt;span style=&quot;color: #000000 ; text-align: center&quot;&gt;&lt;span style=&quot;color: #000000 ; text-align: center&quot;&gt;Sends JSON &lt;br&gt;with fixed schema &lt;br&gt;using &lt;/span&gt;&lt;span style=&quot;color: #000000 ; font-style: italic ; text-align: center&quot;&gt;websocket&lt;/span&gt; &lt;br&gt;library&lt;/span&gt;" style="text;html=1;resizable=0;labelBackgroundColor=#ffffff;align=center;verticalAlign=middle;fontStyle=2;fontColor=#000000;;fontSize=11;" vertex="1" parent="DwIG91w8eqEYA4OjXnhD-35">
          <mxGeometry relative="1" as="geometry">
            <mxPoint y="20.22" as="offset" />
          </mxGeometry>
        </mxCell>
        <UserObject label="" lucidchartObjectId="q53MY_tUMoVi" id="DwIG91w8eqEYA4OjXnhD-37">
          <mxCell style="html=1;jettySize=18;overflow=width;html=1;rounded=1;arcSize=0;edgeStyle=orthogonalEdgeStyle;curved=1;startArrow=none;;endArrow=block;endFill=1;;exitX=0.3899505969411956;exitY=-0.010087719298245541;exitPerimeter=1;entryX=1.00625;entryY=0.5;entryPerimeter=1;" edge="1" parent="1" target="DwIG91w8eqEYA4OjXnhD-9">
            <mxGeometry width="100" height="100" relative="1" as="geometry">
              <Array as="points" />
              <mxPoint x="801.3701585907456" y="531" as="sourcePoint" />
            </mxGeometry>
          </mxCell>
        </UserObject>
        <mxCell id="DwIG91w8eqEYA4OjXnhD-38" value="Sends command &lt;br&gt;parameters &lt;br&gt;according to JSON &lt;br&gt;schema" style="text;html=1;resizable=0;labelBackgroundColor=#ffffff;align=center;verticalAlign=middle;fontColor=#000000;;fontSize=11;" vertex="1" parent="DwIG91w8eqEYA4OjXnhD-37">
          <mxGeometry x="-0.16079857546748744" relative="1" as="geometry">
            <mxPoint x="18.28" y="-36.15" as="offset" />
          </mxGeometry>
        </mxCell>
        <UserObject label="Initial State" lucidchartObjectId="EbbPA75GKc3f" id="DwIG91w8eqEYA4OjXnhD-39">
          <mxCell style="html=1;whiteSpace=wrap;;fontSize=11;fontColor=#000000;spacing=3;strokeOpacity=100;" vertex="1" zOrder="31" parent="1">
            <mxGeometry x="294" y="620" width="96" height="59" as="geometry" />
          </mxCell>
        </UserObject>
        <UserObject label="" lucidchartObjectId="wcbP.zylDVwA" id="DwIG91w8eqEYA4OjXnhD-40">
          <mxCell style="html=1;jettySize=18;fontSize=11;rounded=1;arcSize=0;edgeStyle=orthogonalEdgeStyle;curved=1;startArrow=none;;endArrow=block;endFill=1;;exitX=-0.00625;exitY=0.5;exitPerimeter=1;entryX=0.5;entryY=1.0100877214912283;entryPerimeter=1;" edge="1" parent="1" source="DwIG91w8eqEYA4OjXnhD-39" target="DwIG91w8eqEYA4OjXnhD-6">
            <mxGeometry width="100" height="100" relative="1" as="geometry">
              <Array as="points" />
            </mxGeometry>
          </mxCell>
        </UserObject>
        <mxCell id="DwIG91w8eqEYA4OjXnhD-41" value="Extracts last&lt;br&gt;event  data" style="text;html=1;resizable=0;labelBackgroundColor=#ffffff;align=center;verticalAlign=middle;fontColor=#000000;;fontSize=11;" vertex="1" parent="DwIG91w8eqEYA4OjXnhD-40">
          <mxGeometry x="-0.23470966701780693" relative="1" as="geometry">
            <mxPoint x="45" y="-9.5" as="offset" />
          </mxGeometry>
        </mxCell>
        <mxCell id="DwIG91w8eqEYA4OjXnhD-42" style="edgeStyle=orthogonalEdgeStyle;rounded=0;orthogonalLoop=1;jettySize=auto;html=1;exitX=0;exitY=0;exitDx=0;exitDy=0;" edge="1" parent="1" source="DwIG91w8eqEYA4OjXnhD-41" target="DwIG91w8eqEYA4OjXnhD-1">
          <mxGeometry relative="1" as="geometry" />
        </mxCell>
        <UserObject label="" lucidchartObjectId="NjbP50WpBl40" id="DwIG91w8eqEYA4OjXnhD-43">
          <mxCell style="html=1;jettySize=18;fontSize=11;rounded=1;arcSize=0;edgeStyle=orthogonalEdgeStyle;curved=1;startArrow=none;;endArrow=block;endFill=1;;exitX=0.5;exitY=1.0100877214912283;exitPerimeter=1;entryX=0.6730316518034698;entryY=1.0100877214912283;entryPerimeter=1;" edge="1" parent="1" target="DwIG91w8eqEYA4OjXnhD-9">
            <mxGeometry width="100" height="100" relative="1" as="geometry">
              <Array as="points">
                <mxPoint x="820" y="630" />
                <mxPoint x="610" y="630" />
              </Array>
              <mxPoint x="810" y="590" as="sourcePoint" />
            </mxGeometry>
          </mxCell>
        </UserObject>
        <mxCell id="DwIG91w8eqEYA4OjXnhD-44" value="Requests event &lt;br&gt;initial state after a client &lt;br&gt;subscribes" style="text;html=1;resizable=0;labelBackgroundColor=#ffffff;align=center;verticalAlign=middle;fontColor=#000000;;fontSize=11;" vertex="1" parent="DwIG91w8eqEYA4OjXnhD-43">
          <mxGeometry x="-0.0927559222150508" relative="1" as="geometry">
            <mxPoint x="9.67" as="offset" />
          </mxGeometry>
        </mxCell>
        <mxCell id="DwIG91w8eqEYA4OjXnhD-45" style="edgeStyle=orthogonalEdgeStyle;rounded=0;orthogonalLoop=1;jettySize=auto;html=1;exitX=0;exitY=0;exitDx=0;exitDy=0;" edge="1" parent="DwIG91w8eqEYA4OjXnhD-43" source="DwIG91w8eqEYA4OjXnhD-44" target="DwIG91w8eqEYA4OjXnhD-44">
          <mxGeometry relative="1" as="geometry" />
        </mxCell>
        <UserObject label="" lucidchartObjectId="okbP3wK9CPmq" id="DwIG91w8eqEYA4OjXnhD-46">
          <mxCell style="html=1;jettySize=18;fontSize=11;rounded=1;arcSize=0;edgeStyle=orthogonalEdgeStyle;curved=1;startArrow=none;;endArrow=block;endFill=1;;exitX=0.5;exitY=1.0100877214912283;exitPerimeter=1;entryX=1;entryY=0.5;entryDx=0;entryDy=0;" edge="1" parent="1" source="DwIG91w8eqEYA4OjXnhD-9" target="DwIG91w8eqEYA4OjXnhD-39">
            <mxGeometry width="100" height="100" relative="1" as="geometry">
              <Array as="points">
                <mxPoint x="600" y="520" />
                <mxPoint x="600" y="650" />
              </Array>
            </mxGeometry>
          </mxCell>
        </UserObject>
        <mxCell id="DwIG91w8eqEYA4OjXnhD-47" value="Calls producer&lt;br&gt;&lt;i&gt;on_ws_message&lt;/i&gt; &lt;br&gt;to obtain &lt;br&gt;initial_state" style="text;html=1;resizable=0;labelBackgroundColor=#ffffff;align=center;verticalAlign=middle;fontColor=#000000;;fontSize=11;" vertex="1" parent="DwIG91w8eqEYA4OjXnhD-46">
          <mxGeometry x="0.4031330646418576" relative="1" as="geometry">
            <mxPoint x="16.5" y="-9.499999999999998" as="offset" />
          </mxGeometry>
        </mxCell>
        <UserObject label="Telemetries" lucidchartObjectId="G4LMOLdaqRaX" id="DwIG91w8eqEYA4OjXnhD-48">
          <mxCell style="html=1;whiteSpace=wrap;;fontSize=11;fontColor=#000000;spacing=3;strokeOpacity=100;" vertex="1" zOrder="1" parent="1">
            <mxGeometry x="294" y="210" width="96" height="59" as="geometry" />
          </mxCell>
        </UserObject>
        <mxCell id="wvmozstWOixYp1jXJ1X4-16" value="" style="edgeStyle=orthogonalEdgeStyle;rounded=0;orthogonalLoop=1;jettySize=auto;html=1;" edge="1" parent="1" source="wvmozstWOixYp1jXJ1X4-3" target="wvmozstWOixYp1jXJ1X4-6">
          <mxGeometry relative="1" as="geometry" />
        </mxCell>
        <mxCell id="wvmozstWOixYp1jXJ1X4-18" style="rounded=0;orthogonalLoop=1;jettySize=auto;html=1;exitX=0;exitY=0.5;exitDx=0;exitDy=0;entryX=1;entryY=0.5;entryDx=0;entryDy=0;endArrow=none;endFill=0;startArrow=classic;startFill=1;edgeStyle=orthogonalEdgeStyle;" edge="1" parent="1" source="wvmozstWOixYp1jXJ1X4-3" target="wvmozstWOixYp1jXJ1X4-7">
          <mxGeometry relative="1" as="geometry" />
        </mxCell>
        <mxCell id="wvmozstWOixYp1jXJ1X4-31" value="Produce JSON&lt;br&gt;message with&lt;br&gt;payload" style="edgeLabel;html=1;align=center;verticalAlign=middle;resizable=0;points=[];" connectable="0" vertex="1" parent="wvmozstWOixYp1jXJ1X4-18">
          <mxGeometry x="-0.0248" relative="1" as="geometry">
            <mxPoint x="-2" y="3" as="offset" />
          </mxGeometry>
        </mxCell>
        <mxCell id="wvmozstWOixYp1jXJ1X4-29" value="" style="edgeStyle=orthogonalEdgeStyle;curved=1;rounded=0;orthogonalLoop=1;jettySize=auto;html=1;" edge="1" parent="1" source="wvmozstWOixYp1jXJ1X4-3" target="wT6P_MaPZ7QrS6XtFfTw-3">
          <mxGeometry relative="1" as="geometry" />
        </mxCell>
        <mxCell id="wvmozstWOixYp1jXJ1X4-33" value="Send&lt;br&gt;messages" style="edgeLabel;html=1;align=center;verticalAlign=middle;resizable=0;points=[];" connectable="0" vertex="1" parent="wvmozstWOixYp1jXJ1X4-29">
          <mxGeometry x="0.1667" y="1" relative="1" as="geometry">
            <mxPoint x="-8" y="-18" as="offset" />
          </mxGeometry>
        </mxCell>
        <UserObject label="LoveManagerClient" lucidchartObjectId="G4LMOLdaqRaX" id="wvmozstWOixYp1jXJ1X4-3">
          <mxCell style="html=1;whiteSpace=wrap;;fontSize=11;fontColor=#000000;spacing=3;strokeOpacity=100;" vertex="1" zOrder="1" parent="1">
            <mxGeometry x="552" y="-900" width="140" height="59" as="geometry" />
          </mxCell>
        </UserObject>
        <mxCell id="wvmozstWOixYp1jXJ1X4-36" style="edgeStyle=orthogonalEdgeStyle;rounded=0;orthogonalLoop=1;jettySize=auto;html=1;exitX=0.5;exitY=0;exitDx=0;exitDy=0;entryX=0.5;entryY=0;entryDx=0;entryDy=0;" edge="1" parent="1" source="wvmozstWOixYp1jXJ1X4-6" target="wvmozstWOixYp1jXJ1X4-7">
          <mxGeometry relative="1" as="geometry">
            <Array as="points">
              <mxPoint x="640" y="-1040" />
              <mxPoint x="379" y="-1040" />
            </Array>
          </mxGeometry>
        </mxCell>
        <UserObject label="LoveProducerFactory" lucidchartObjectId="G4LMOLdaqRaX" id="wvmozstWOixYp1jXJ1X4-6">
          <mxCell style="html=1;whiteSpace=wrap;;fontSize=11;fontColor=#000000;spacing=3;strokeOpacity=100;" vertex="1" zOrder="1" parent="1">
            <mxGeometry x="552" y="-1008" width="140" height="59" as="geometry" />
          </mxCell>
        </UserObject>
        <mxCell id="wvmozstWOixYp1jXJ1X4-14" value="" style="group" connectable="0" vertex="1" parent="1">
          <mxGeometry x="230" y="-1008" width="294" height="288" as="geometry" />
        </mxCell>
        <UserObject label="LoveProducerBase" lucidchartObjectId="G4LMOLdaqRaX" id="wvmozstWOixYp1jXJ1X4-7">
          <mxCell style="html=1;whiteSpace=wrap;;fontSize=11;fontColor=#000000;spacing=3;strokeOpacity=100;" vertex="1" zOrder="1" parent="wvmozstWOixYp1jXJ1X4-14">
            <mxGeometry x="79" width="140" height="59" as="geometry" />
          </mxCell>
        </UserObject>
        <mxCell id="wvmozstWOixYp1jXJ1X4-13" value="" style="edgeStyle=orthogonalEdgeStyle;rounded=0;orthogonalLoop=1;jettySize=auto;html=1;endArrow=block;endFill=0;" edge="1" parent="wvmozstWOixYp1jXJ1X4-14" source="wvmozstWOixYp1jXJ1X4-8" target="wvmozstWOixYp1jXJ1X4-7">
          <mxGeometry relative="1" as="geometry" />
        </mxCell>
        <UserObject label="LoveProducerCsc" lucidchartObjectId="G4LMOLdaqRaX" id="wvmozstWOixYp1jXJ1X4-8">
          <mxCell style="html=1;whiteSpace=wrap;;fontSize=11;fontColor=#000000;spacing=3;strokeOpacity=100;" vertex="1" zOrder="1" parent="wvmozstWOixYp1jXJ1X4-14">
            <mxGeometry x="79" y="108" width="140" height="59" as="geometry" />
          </mxCell>
        </UserObject>
        <mxCell id="wvmozstWOixYp1jXJ1X4-11" value="" style="edgeStyle=orthogonalEdgeStyle;rounded=0;orthogonalLoop=1;jettySize=auto;html=1;endArrow=block;endFill=0;" edge="1" parent="wvmozstWOixYp1jXJ1X4-14" source="wvmozstWOixYp1jXJ1X4-9" target="wvmozstWOixYp1jXJ1X4-8">
          <mxGeometry relative="1" as="geometry" />
        </mxCell>
        <UserObject label="LoveProducerScriptqueue" lucidchartObjectId="G4LMOLdaqRaX" id="wvmozstWOixYp1jXJ1X4-9">
          <mxCell style="html=1;whiteSpace=wrap;;fontSize=11;fontColor=#000000;spacing=3;strokeOpacity=100;" vertex="1" zOrder="1" parent="wvmozstWOixYp1jXJ1X4-14">
            <mxGeometry y="229" width="140" height="59" as="geometry" />
          </mxCell>
        </UserObject>
        <mxCell id="wvmozstWOixYp1jXJ1X4-12" value="" style="edgeStyle=orthogonalEdgeStyle;rounded=0;orthogonalLoop=1;jettySize=auto;html=1;endArrow=block;endFill=0;" edge="1" parent="wvmozstWOixYp1jXJ1X4-14" source="wvmozstWOixYp1jXJ1X4-10" target="wvmozstWOixYp1jXJ1X4-8">
          <mxGeometry relative="1" as="geometry" />
        </mxCell>
        <UserObject label="LoveProducerWatcher" lucidchartObjectId="G4LMOLdaqRaX" id="wvmozstWOixYp1jXJ1X4-10">
          <mxCell style="html=1;whiteSpace=wrap;;fontSize=11;fontColor=#000000;spacing=3;strokeOpacity=100;" vertex="1" zOrder="1" parent="wvmozstWOixYp1jXJ1X4-14">
            <mxGeometry x="154" y="229" width="140" height="59" as="geometry" />
          </mxCell>
        </UserObject>
        <mxCell id="wvmozstWOixYp1jXJ1X4-17" value="" style="edgeStyle=orthogonalEdgeStyle;rounded=0;orthogonalLoop=1;jettySize=auto;html=1;" edge="1" parent="1">
          <mxGeometry relative="1" as="geometry">
            <mxPoint x="620" y="-779" as="sourcePoint" />
            <mxPoint x="620" y="-841" as="targetPoint" />
          </mxGeometry>
        </mxCell>
        <mxCell id="wvmozstWOixYp1jXJ1X4-20" style="edgeStyle=orthogonalEdgeStyle;rounded=0;orthogonalLoop=1;jettySize=auto;html=1;exitX=0.5;exitY=1;exitDx=0;exitDy=0;entryX=0.5;entryY=0;entryDx=0;entryDy=0;" edge="1" parent="1" source="wvmozstWOixYp1jXJ1X4-15" target="wvmozstWOixYp1jXJ1X4-19">
          <mxGeometry relative="1" as="geometry" />
        </mxCell>
        <UserObject label="LoveProducerSet" lucidchartObjectId="G4LMOLdaqRaX" id="wvmozstWOixYp1jXJ1X4-15">
          <mxCell style="html=1;whiteSpace=wrap;;fontSize=11;fontColor=#000000;spacing=3;strokeOpacity=100;" vertex="1" zOrder="1" parent="1">
            <mxGeometry x="552" y="-779" width="140" height="59" as="geometry" />
          </mxCell>
        </UserObject>
        <mxCell id="wvmozstWOixYp1jXJ1X4-22" value="" style="edgeStyle=orthogonalEdgeStyle;rounded=0;orthogonalLoop=1;jettySize=auto;html=1;startArrow=classic;startFill=1;endArrow=none;endFill=0;" edge="1" parent="1" source="wvmozstWOixYp1jXJ1X4-19" target="wvmozstWOixYp1jXJ1X4-21">
          <mxGeometry relative="1" as="geometry" />
        </mxCell>
        <UserObject label="&lt;font color=&quot;#0066cc&quot;&gt;amain()&lt;/font&gt;" lucidchartObjectId="6h3Mt0NR0N~k" id="wvmozstWOixYp1jXJ1X4-19">
          <mxCell style="html=1;whiteSpace=wrap;;fontSize=11;fontColor=#000000;spacing=3;strokeOpacity=100;strokeColor=#0066CC;" vertex="1" zOrder="7" parent="1">
            <mxGeometry x="572" y="-700" width="100" height="40" as="geometry" />
          </mxCell>
        </UserObject>
        <UserObject label="&lt;font style=&quot;font-size: 10px;&quot; color=&quot;#0066cc&quot;&gt;environment&lt;br&gt;variables&lt;/font&gt;" lucidchartObjectId="Uz3MTHXA16VP" id="wvmozstWOixYp1jXJ1X4-21">
          <mxCell style="html=1;whiteSpace=wrap;shape=document;fontSize=11;fontColor=#000000;spacing=3;strokeOpacity=100;strokeColor=#0066CC;spacingBottom=10;" vertex="1" zOrder="18" parent="1">
            <mxGeometry x="577.37" y="-610" width="89.25" height="50" as="geometry" />
          </mxCell>
        </UserObject>
        <mxCell id="wvmozstWOixYp1jXJ1X4-27" value="" style="edgeStyle=orthogonalEdgeStyle;curved=1;rounded=0;orthogonalLoop=1;jettySize=auto;html=1;endArrow=none;endFill=0;startArrow=classic;startFill=1;" edge="1" parent="1" source="wvmozstWOixYp1jXJ1X4-8" target="wT6P_MaPZ7QrS6XtFfTw-4">
          <mxGeometry relative="1" as="geometry" />
        </mxCell>
        <mxCell id="wvmozstWOixYp1jXJ1X4-30" value="Read telemetries&lt;br&gt;and events" style="edgeLabel;html=1;align=center;verticalAlign=middle;resizable=0;points=[];" connectable="0" vertex="1" parent="wvmozstWOixYp1jXJ1X4-27">
          <mxGeometry x="0.0924" y="-3" relative="1" as="geometry">
            <mxPoint x="27" y="-16" as="offset" />
          </mxGeometry>
        </mxCell>
        <UserObject label="LoveManagerMessage" lucidchartObjectId="G4LMOLdaqRaX" id="wvmozstWOixYp1jXJ1X4-45">
          <mxCell style="html=1;whiteSpace=wrap;;fontSize=11;fontColor=#000000;spacing=3;strokeOpacity=100;" vertex="1" zOrder="1" parent="1">
            <mxGeometry x="130" y="-1008" width="140" height="59" as="geometry" />
          </mxCell>
        </UserObject>
        <mxCell id="wvmozstWOixYp1jXJ1X4-49" value="" style="edgeStyle=orthogonalEdgeStyle;curved=1;rounded=0;orthogonalLoop=1;jettySize=auto;html=1;" edge="1" parent="1" source="wvmozstWOixYp1jXJ1X4-7" target="wvmozstWOixYp1jXJ1X4-45">
          <mxGeometry relative="1" as="geometry" />
        </mxCell>
      </root>
    </mxGraphModel>
  </diagram>
</mxfile>
